<?xml version="1.0" encoding="UTF-8" standalone="no"?>
<!-- Created with Inkscape (http://www.inkscape.org/) -->

<svg
   xmlns:dc="http://purl.org/dc/elements/1.1/"
   xmlns:cc="http://creativecommons.org/ns#"
   xmlns:rdf="http://www.w3.org/1999/02/22-rdf-syntax-ns#"
   xmlns:svg="http://www.w3.org/2000/svg"
   xmlns="http://www.w3.org/2000/svg"
   xmlns:sodipodi="http://sodipodi.sourceforge.net/DTD/sodipodi-0.dtd"
   xmlns:inkscape="http://www.inkscape.org/namespaces/inkscape"
   width="744.09448819"
   height="1052.3622047"
   id="svg2"
   version="1.1"
   inkscape:version="0.47pre1 r21720"
   sodipodi:docname="pedowoman-character.svg"
   inkscape:output_extension="org.inkscape.output.svg.inkscape"
   inkscape:export-filename="/Users/riq/progs/pedoman/data/pedoman-character.png"
   inkscape:export-xdpi="90"
   inkscape:export-ydpi="90">
  <defs
     id="defs4">
    <linearGradient
       id="linearGradient5086">
      <stop
         style="stop-color:#e2ff37;stop-opacity:1;"
         offset="0"
         id="stop5088" />
      <stop
         style="stop-color:#e2ff37;stop-opacity:0;"
         offset="1"
         id="stop5090" />
    </linearGradient>
    <inkscape:perspective
       sodipodi:type="inkscape:persp3d"
       inkscape:vp_x="0 : 526.18109 : 1"
       inkscape:vp_y="0 : 1000 : 0"
       inkscape:vp_z="744.09448 : 526.18109 : 1"
       inkscape:persp3d-origin="372.04724 : 350.78739 : 1"
       id="perspective10" />
    <inkscape:perspective
       id="perspective5129"
       inkscape:persp3d-origin="0.5 : 0.33333333 : 1"
       inkscape:vp_z="1 : 0.5 : 1"
       inkscape:vp_y="0 : 1000 : 0"
       inkscape:vp_x="0 : 0.5 : 1"
       sodipodi:type="inkscape:persp3d" />
    <inkscape:perspective
       id="perspective5156"
       inkscape:persp3d-origin="0.5 : 0.33333333 : 1"
       inkscape:vp_z="1 : 0.5 : 1"
       inkscape:vp_y="0 : 1000 : 0"
       inkscape:vp_x="0 : 0.5 : 1"
       sodipodi:type="inkscape:persp3d" />
    <inkscape:perspective
       id="perspective5187"
       inkscape:persp3d-origin="0.5 : 0.33333333 : 1"
       inkscape:vp_z="1 : 0.5 : 1"
       inkscape:vp_y="0 : 1000 : 0"
       inkscape:vp_x="0 : 0.5 : 1"
       sodipodi:type="inkscape:persp3d" />
  </defs>
  <sodipodi:namedview
     id="base"
     pagecolor="#ffffff"
     bordercolor="#666666"
     borderopacity="1.0"
     inkscape:pageopacity="0.0"
     inkscape:pageshadow="2"
     inkscape:zoom="5.6568542"
     inkscape:cx="232.0082"
     inkscape:cy="524.92261"
     inkscape:document-units="px"
     inkscape:current-layer="layer1"
     showgrid="false"
     inkscape:window-width="1110"
     inkscape:window-height="639"
     inkscape:window-x="0"
     inkscape:window-y="0"
     inkscape:window-maximized="0" />
  <metadata
     id="metadata7">
    <rdf:RDF>
      <cc:Work
         rdf:about="">
        <dc:format>image/svg+xml</dc:format>
        <dc:type
           rdf:resource="http://purl.org/dc/dcmitype/StillImage" />
        <dc:title></dc:title>
      </cc:Work>
    </rdf:RDF>
  </metadata>
  <g
     inkscape:label="Layer 1"
     inkscape:groupmode="layer"
     id="layer1">
    <path
       sodipodi:type="arc"
       style="fill:#6b3e10;stroke:#000000;stroke-width:13.13592998999999928;stroke-miterlimit:4;stroke-opacity:1;stroke-dasharray:none;fill-opacity:1"
       id="path2816"
       sodipodi:cx="312.85715"
       sodipodi:cy="468.07648"
       sodipodi:rx="95.714287"
       sodipodi:ry="87.14286"
       d="m 408.57143,468.07648 a 95.714287,87.14286 0 1 1 -191.42857,0 95.714287,87.14286 0 1 1 191.42857,0 z"
       transform="matrix(0.25423465,0,0,0.27924133,160.10373,402.01302)" />
    <path
       sodipodi:type="arc"
       style="fill:#fdfdfd;fill-opacity:1;stroke:#000000;stroke-width:0;stroke-miterlimit:4;stroke-opacity:1;stroke-dasharray:none"
       id="path5106"
       sodipodi:cx="229.54454"
       sodipodi:cy="526.98187"
       sodipodi:rx="5.7452426"
       sodipodi:ry="3.0052037"
       d="m 235.28978,526.98187 a 5.7452426,3.0052037 0 1 1 -11.49048,0 5.7452426,3.0052037 0 1 1 11.49048,0 z"
       transform="matrix(1.0153846,0,0,1,-5.0895127,-1.6464466)" />
    <path
       sodipodi:type="arc"
       style="fill:#fdfdfd;fill-opacity:1;stroke:#000000;stroke-width:0;stroke-miterlimit:4;stroke-opacity:1;stroke-dasharray:none"
       id="path5162"
       sodipodi:cx="244.74733"
       sodipodi:cy="526.98187"
       sodipodi:rx="6.0987959"
       sodipodi:ry="3.0052037"
       d="m 250.84613,526.98187 a 6.0987959,3.0052037 0 1 1 -12.1976,0 6.0987959,3.0052037 0 1 1 12.1976,0 z"
       transform="translate(3.5355339,-1.5909903)" />
    <path
       sodipodi:type="arc"
       style="fill:#0000ff;fill-opacity:1;stroke:#000000;stroke-width:0;stroke-miterlimit:4;stroke-opacity:1;stroke-dasharray:none"
       id="path5164"
       sodipodi:cx="227.42322"
       sodipodi:cy="526.00958"
       sodipodi:rx="2.3864853"
       sodipodi:ry="1.5026019"
       d="m 229.8097,526.00958 a 2.3864853,1.5026019 0 1 1 -4.77297,0 2.3864853,1.5026019 0 1 1 4.77297,0 z"
       transform="matrix(1.0475656,0,0,1.6637807,-10.350459,-349.79886)"
       inkscape:transform-center-y="-2.5" />
    <path
       sodipodi:type="arc"
       style="fill:#ffff00;fill-opacity:1;stroke:#000000;stroke-width:3.16846013000000015;stroke-miterlimit:4;stroke-opacity:1;stroke-dasharray:none"
       id="path5263"
       sodipodi:cx="208.77328"
       sodipodi:cy="521.41339"
       sodipodi:rx="7.0710678"
       sodipodi:ry="15.114408"
       d="m 215.84435,521.41339 a 7.0710678,15.114408 0 1 1 -14.14213,0 7.0710678,15.114408 0 1 1 14.14213,0 z"
       transform="matrix(1.5203739,1.3734546,-0.15576923,0.22335413,20.751638,112.73284)" />
    <path
       sodipodi:type="arc"
       style="fill:#ffff00;fill-opacity:1;stroke:#000000;stroke-width:3;stroke-miterlimit:4;stroke-opacity:1;stroke-dasharray:none"
       id="path5265"
       sodipodi:cx="203.73514"
       sodipodi:cy="529.98706"
       sodipodi:rx="4.1542525"
       sodipodi:ry="11.667262"
       d="m 207.88939,529.98706 a 4.1542525,11.667262 0 1 1 -8.3085,0 4.1542525,11.667262 0 1 1 8.3085,0 z"
       transform="translate(60.634407,13.965359)" />
    <path
       sodipodi:type="arc"
       style="fill:#ffff00;fill-opacity:1;stroke:#000000;stroke-width:3;stroke-miterlimit:4;stroke-opacity:1;stroke-dasharray:none"
       id="path5267"
       sodipodi:cx="208.15456"
       sodipodi:cy="540.32849"
       sodipodi:rx="5.3916893"
       sodipodi:ry="7.3362327"
       d="m 213.54625,540.32849 a 5.3916893,7.3362327 0 1 1 -10.78338,0 5.3916893,7.3362327 0 1 1 10.78338,0 z"
       transform="translate(56.568543,-11.490485)" />
    <path
       sodipodi:type="arc"
       style="fill:#ffff00;fill-opacity:1;stroke:#000000;stroke-width:3;stroke-miterlimit:4;stroke-opacity:1;stroke-dasharray:none"
       id="path5269"
       sodipodi:cx="231.04713"
       sodipodi:cy="507.53641"
       sodipodi:rx="12.551146"
       sodipodi:ry="4.9497476"
       d="m 243.59828,507.53641 a 12.551146,4.9497476 0 1 1 -25.10229,0 12.551146,4.9497476 0 1 1 25.10229,0 z"
       transform="translate(7.2478445,0)" />
    <path
       sodipodi:type="arc"
       style="fill:#ffff00;fill-opacity:1;stroke:#000000;stroke-width:3;stroke-miterlimit:4;stroke-opacity:1;stroke-dasharray:none"
       id="path5271"
       sodipodi:cx="217.7005"
       sodipodi:cy="512.57452"
       sodipodi:rx="14.230524"
       sodipodi:ry="5.038136"
       d="m 231.93102,512.57452 a 14.230524,5.038136 0 1 1 -28.46104,0 14.230524,5.038136 0 1 1 28.46104,0 z"
       transform="matrix(0.6524512,-0.5016512,0.39277847,0.83330161,-125.4899,199.86998)" />
    <path
       sodipodi:type="arc"
       style="fill:#ffff00;fill-opacity:1;stroke:#000000;stroke-width:3;stroke-miterlimit:4;stroke-opacity:1;stroke-dasharray:none"
       id="path5273"
       sodipodi:cx="216.72823"
       sodipodi:cy="537.14648"
       sodipodi:rx="4.4194174"
       sodipodi:ry="14.937631"
       d="m 221.14764,537.14648 a 4.4194174,14.937631 0 1 1 -8.83883,0 4.4194174,14.937631 0 1 1 8.83883,0 z"
       transform="translate(-2.298097,1.5909903)" />
    <path
       sodipodi:type="arc"
       style="fill:#0000ff;fill-opacity:1;stroke:#0000ff;stroke-width:3;stroke-miterlimit:4;stroke-opacity:1;stroke-dasharray:none"
       id="path5275"
       sodipodi:cx="247.57576"
       sodipodi:cy="525.12567"
       sodipodi:rx="1.1490486"
       sodipodi:ry="0.9722718"
       d="m 248.72481,525.12567 a 1.1490486,0.9722718 0 1 1 -2.2981,0 1.1490486,0.9722718 0 1 1 2.2981,0 z" />
    <path
       style="fill:none;stroke:#ff0000;stroke-width:2;stroke-linecap:butt;stroke-linejoin:miter;stroke-opacity:1;stroke-miterlimit:4;stroke-dasharray:none"
       d="m 226.59857,540.34412 c 2.51113,-1.63723 2.72057,8.40038 12.05707,7.04532 12.79633,-1.85721 11.92441,-7.53205 11.92441,-7.53205"
       id="path5291"
       sodipodi:nodetypes="csc" />
  </g>
</svg>
