<?xml version="1.0" encoding="UTF-8" standalone="no"?>
<!-- Created with Inkscape (http://www.inkscape.org/) -->

<svg
   xmlns:dc="http://purl.org/dc/elements/1.1/"
   xmlns:cc="http://creativecommons.org/ns#"
   xmlns:rdf="http://www.w3.org/1999/02/22-rdf-syntax-ns#"
   xmlns:svg="http://www.w3.org/2000/svg"
   xmlns="http://www.w3.org/2000/svg"
   xmlns:sodipodi="http://sodipodi.sourceforge.net/DTD/sodipodi-0.dtd"
   xmlns:inkscape="http://www.inkscape.org/namespaces/inkscape"
   width="800"
   height="600"
   id="svg2"
   version="1.1"
   inkscape:version="0.47pre1 r21720"
   sodipodi:docname="level11.svg"
   inkscape:output_extension="org.inkscape.output.svg.inkscape"
   inkscape:export-filename="/Users/riq/progs/pedoman/data/levels/level10.png"
   inkscape:export-xdpi="90"
   inkscape:export-ydpi="90">
  <defs
     id="defs2824">
    <pattern
       inkscape:stockid="Polka dots, medium white"
       id="Polkadots-medwhite"
       patternTransform="translate(0,0) scale(10,10)"
       height="10"
       width="10"
       patternUnits="userSpaceOnUse"
       inkscape:collect="always">
      <circle
         id="circle5062"
         r="0.15"
         cy="0.810"
         cx="2.567"
         style="fill:white;stroke:none" />
      <circle
         id="circle5064"
         r="0.15"
         cy="2.33"
         cx="3.048"
         style="fill:white;stroke:none" />
      <circle
         id="circle5066"
         r="0.15"
         cy="2.415"
         cx="4.418"
         style="fill:white;stroke:none" />
      <circle
         id="circle5068"
         r="0.15"
         cy="3.029"
         cx="1.844"
         style="fill:white;stroke:none" />
      <circle
         id="circle5070"
         r="0.15"
         cy="1.363"
         cx="6.08"
         style="fill:white;stroke:none" />
      <circle
         id="circle5072"
         r="0.15"
         cy="4.413"
         cx="5.819"
         style="fill:white;stroke:none" />
      <circle
         id="circle5074"
         r="0.15"
         cy="4.048"
         cx="4.305"
         style="fill:white;stroke:none" />
      <circle
         id="circle5076"
         r="0.15"
         cy="3.045"
         cx="5.541"
         style="fill:white;stroke:none" />
      <circle
         id="circle5078"
         r="0.15"
         cy="5.527"
         cx="4.785"
         style="fill:white;stroke:none" />
      <circle
         id="circle5080"
         r="0.15"
         cy="5.184"
         cx="2.667"
         style="fill:white;stroke:none" />
      <circle
         id="circle5082"
         r="0.15"
         cy="1.448"
         cx="7.965"
         style="fill:white;stroke:none" />
      <circle
         id="circle5084"
         r="0.15"
         cy="5.049"
         cx="7.047"
         style="fill:white;stroke:none" />
      <circle
         id="circle5086"
         r="0.15"
         cy="0.895"
         cx="4.340"
         style="fill:white;stroke:none" />
      <circle
         id="circle5088"
         r="0.15"
         cy="0.340"
         cx="7.125"
         style="fill:white;stroke:none" />
      <circle
         id="circle5090"
         r="0.15"
         cy="1.049"
         cx="9.553"
         style="fill:white;stroke:none" />
      <circle
         id="circle5092"
         r="0.15"
         cy="2.689"
         cx="7.006"
         style="fill:white;stroke:none" />
      <circle
         id="circle5094"
         r="0.15"
         cy="2.689"
         cx="8.909"
         style="fill:white;stroke:none" />
      <circle
         id="circle5096"
         r="0.15"
         cy="4.407"
         cx="9.315"
         style="fill:white;stroke:none" />
      <circle
         id="circle5098"
         r="0.15"
         cy="3.870"
         cx="7.820"
         style="fill:white;stroke:none" />
      <circle
         id="circle5100"
         r="0.15"
         cy="5.948"
         cx="8.270"
         style="fill:white;stroke:none" />
      <circle
         id="circle5102"
         r="0.15"
         cy="7.428"
         cx="7.973"
         style="fill:white;stroke:none" />
      <circle
         id="circle5104"
         r="0.15"
         cy="8.072"
         cx="9.342"
         style="fill:white;stroke:none" />
      <circle
         id="circle5106"
         r="0.15"
         cy="9.315"
         cx="8.206"
         style="fill:white;stroke:none" />
      <circle
         id="circle5108"
         r="0.15"
         cy="9.475"
         cx="9.682"
         style="fill:white;stroke:none" />
      <circle
         id="circle5110"
         r="0.15"
         cy="6.186"
         cx="9.688"
         style="fill:white;stroke:none" />
      <circle
         id="circle5112"
         r="0.15"
         cy="6.296"
         cx="3.379"
         style="fill:white;stroke:none" />
      <circle
         id="circle5114"
         r="0.15"
         cy="8.204"
         cx="2.871"
         style="fill:white;stroke:none" />
      <circle
         id="circle5116"
         r="0.15"
         cy="8.719"
         cx="4.59"
         style="fill:white;stroke:none" />
      <circle
         id="circle5118"
         r="0.15"
         cy="9.671"
         cx="3.181"
         style="fill:white;stroke:none" />
      <circle
         id="circle5120"
         r="0.15"
         cy="7.315"
         cx="5.734"
         style="fill:white;stroke:none" />
      <circle
         id="circle5122"
         r="0.15"
         cy="6.513"
         cx="6.707"
         style="fill:white;stroke:none" />
      <circle
         id="circle5124"
         r="0.15"
         cy="9.670"
         cx="5.730"
         style="fill:white;stroke:none" />
      <circle
         id="circle5126"
         r="0.15"
         cy="8.373"
         cx="6.535"
         style="fill:white;stroke:none" />
      <circle
         id="circle5128"
         r="0.15"
         cy="7.154"
         cx="4.37"
         style="fill:white;stroke:none" />
      <circle
         id="circle5130"
         r="0.15"
         cy="7.25"
         cx="0.622"
         style="fill:white;stroke:none" />
      <circle
         id="circle5132"
         r="0.15"
         cy="5.679"
         cx="0.831"
         style="fill:white;stroke:none" />
      <circle
         id="circle5134"
         r="0.15"
         cy="8.519"
         cx="1.257"
         style="fill:white;stroke:none" />
      <circle
         id="circle5136"
         r="0.15"
         cy="6.877"
         cx="1.989"
         style="fill:white;stroke:none" />
      <circle
         id="circle5138"
         r="0.15"
         cy="3.181"
         cx="0.374"
         style="fill:white;stroke:none" />
      <circle
         id="circle5140"
         r="0.15"
         cy="1.664"
         cx="1.166"
         style="fill:white;stroke:none" />
      <circle
         id="circle5142"
         r="0.15"
         cy="0.093"
         cx="1.151"
         style="fill:white;stroke:none" />
      <circle
         id="circle5144"
         r="0.15"
         cy="10.093"
         cx="1.151"
         style="fill:white;stroke:none" />
      <circle
         id="circle5146"
         r="0.15"
         cy="4.451"
         cx="1.302"
         style="fill:white;stroke:none" />
      <circle
         id="circle5148"
         r="0.15"
         cy="3.763"
         cx="3.047"
         style="fill:white;stroke:none" />
    </pattern>
    <inkscape:perspective
       sodipodi:type="inkscape:persp3d"
       inkscape:vp_x="0 : 300 : 1"
       inkscape:vp_y="0 : 1000 : 0"
       inkscape:vp_z="800 : 300 : 1"
       inkscape:persp3d-origin="400 : 200 : 1"
       id="perspective2826" />
  </defs>
  <sodipodi:namedview
     id="base"
     pagecolor="#ffffff"
     bordercolor="#666666"
     borderopacity="1.0"
     inkscape:pageopacity="0.0"
     inkscape:pageshadow="2"
     inkscape:zoom="0.64331209"
     inkscape:cx="337.68134"
     inkscape:cy="270.77009"
     inkscape:document-units="px"
     inkscape:current-layer="g6966"
     showgrid="false"
     inkscape:window-width="1273"
     inkscape:window-height="753"
     inkscape:window-x="9"
     inkscape:window-y="0"
     inkscape:window-maximized="0" />
  <metadata
     id="metadata7">
    <rdf:RDF>
      <cc:Work
         rdf:about="">
        <dc:format>image/svg+xml</dc:format>
        <dc:type
           rdf:resource="http://purl.org/dc/dcmitype/StillImage" />
        <dc:title></dc:title>
      </cc:Work>
    </rdf:RDF>
  </metadata>
  <g
     inkscape:label="physics:static"
     inkscape:groupmode="layer"
     id="layer1"
     style="display:none">
    <rect
       style="fill:#ffac00;fill-opacity:1;fill-rule:nonzero;stroke:#0c0c0c;stroke-width:2.30956507;stroke-linecap:round;stroke-linejoin:round;stroke-miterlimit:4;stroke-opacity:1;stroke-dasharray:none"
       id="rect2878"
       width="24.92452"
       height="307.28091"
       x="1.1547825"
       y="291.5643" />
    <path
       sodipodi:type="arc"
       style="fill:#00ff00;fill-opacity:1;fill-rule:nonzero;stroke:#0c0c0c;stroke-width:5;stroke-linecap:round;stroke-linejoin:round;stroke-miterlimit:4;stroke-opacity:1;stroke-dasharray:none"
       id="path3004"
       sodipodi:cx="250.5"
       sodipodi:cy="372"
       sodipodi:rx="27.5"
       sodipodi:ry="30"
       d="m 278,372 a 27.5,30 0 1 1 -55,0 27.5,30 0 1 1 55,0 z"
       transform="matrix(0.11853075,0,0,0.10865319,267.35135,479.53771)"
       game_data="sprite=food" />
    <path
       sodipodi:type="arc"
       style="fill:#00ff00;fill-opacity:1;fill-rule:nonzero;stroke:#0c0c0c;stroke-width:5;stroke-linecap:round;stroke-linejoin:round;stroke-miterlimit:4;stroke-opacity:1;stroke-dasharray:none"
       id="path3006"
       sodipodi:cx="302"
       sodipodi:cy="402"
       sodipodi:rx="13"
       sodipodi:ry="15"
       d="m 315,402 a 13,15 0 1 1 -26,0 13,15 0 1 1 26,0 z"
       game_data="sprite=food"
       transform="matrix(0.2311751,0,0,0.20035175,174.22843,434.41529)" />
    <path
       sodipodi:type="arc"
       style="fill:#00ff00;fill-opacity:1;fill-rule:nonzero;stroke:#0c0c0c;stroke-width:5;stroke-linecap:round;stroke-linejoin:round;stroke-miterlimit:4;stroke-opacity:1;stroke-dasharray:none"
       id="path3008"
       sodipodi:cx="388"
       sodipodi:cy="440"
       sodipodi:rx="11"
       sodipodi:ry="13"
       d="m 399,440 a 11,13 0 1 1 -22,0 11,13 0 1 1 22,0 z"
       game_data="sprite=food"
       transform="matrix(0.26642076,0,0,0.22543296,84.67205,420.7662)" />
    <path
       sodipodi:type="arc"
       style="fill:#ff00ff;fill-opacity:1;fill-rule:nonzero;stroke:#0c0c0c;stroke-width:5;stroke-linecap:round;stroke-linejoin:round;stroke-miterlimit:4;stroke-opacity:1;stroke-dasharray:none"
       id="path3012"
       sodipodi:cx="620.5"
       sodipodi:cy="340"
       sodipodi:rx="26.5"
       sodipodi:ry="28"
       d="m 647,340 a 26.5,28 0 1 1 -53,0 26.5,28 0 1 1 53,0 z"
       game_data="sprite=gaswoman"
       transform="matrix(1.2442921,0,0,1.1776336,-672.3258,-252.25184)"
       physics_shape="restitution=1" />
    <rect
       style="fill:#ff6600;fill-opacity:1;fill-rule:nonzero;stroke:#0c0c0c;stroke-width:3;stroke-linecap:round;stroke-linejoin:round;stroke-miterlimit:4;stroke-opacity:1;stroke-dasharray:none"
       id="rect2999"
       width="457.37683"
       height="30.376842"
       x="1.5"
       y="568.12317" />
    <rect
       style="fill:#ff6600;fill-opacity:1;fill-rule:nonzero;stroke:#0c0c0c;stroke-width:2.60672736;stroke-linecap:round;stroke-linejoin:round;stroke-miterlimit:4;stroke-opacity:1;stroke-dasharray:none"
       id="rect6815"
       width="31.831501"
       height="445.49487"
       x="766.58423"
       y="153.20177" />
    <rect
       style="fill:#ff6600;fill-opacity:1;fill-rule:nonzero;stroke:#0c0c0c;stroke-width:3;stroke-linecap:round;stroke-linejoin:round;stroke-miterlimit:4;stroke-opacity:1;stroke-dasharray:none"
       id="rect6819"
       width="301"
       height="29"
       x="16"
       y="290" />
    <rect
       style="fill:#ff6600;fill-opacity:1;fill-rule:nonzero;stroke:#0c0c0c;stroke-width:2.19395947;stroke-linecap:round;stroke-linejoin:round;stroke-miterlimit:4;stroke-opacity:1;stroke-dasharray:none"
       id="rect6827"
       width="124.77633"
       height="33.806038"
       x="477.0029"
       y="350.91382" />
    <rect
       style="fill:#ff0000;fill-opacity:1;fill-rule:nonzero;stroke:#0c0c0c;stroke-width:2.87601519;stroke-linecap:round;stroke-linejoin:round;stroke-miterlimit:4;stroke-opacity:1;stroke-dasharray:none"
       id="rect6835"
       width="646.48218"
       height="26.132206"
       x="-338.64014"
       y="10.44611"
       game_data="sprite=game_over"
       transform="matrix(4.9630529e-4,0.99999988,-0.99999872,0.00160284,0,0)" />
    <path
       sodipodi:type="arc"
       style="fill:#ff6600;fill-opacity:1;fill-rule:nonzero;stroke:#0c0c0c;stroke-width:3;stroke-linecap:round;stroke-linejoin:round;stroke-miterlimit:4;stroke-opacity:1;stroke-dasharray:none"
       id="path6946"
       sodipodi:cx="624.5"
       sodipodi:cy="550"
       sodipodi:rx="121.5"
       sodipodi:ry="117"
       d="m 746,550 a 121.5,117 0 1 1 -243,0 121.5,117 0 1 1 243,0 z"
       transform="matrix(0.99976775,0,0,1.0382204,81.145038,21.478807)" />
    <path
       sodipodi:type="arc"
       style="fill:#ff6600;fill-opacity:1;fill-rule:nonzero;stroke:#0c0c0c;stroke-width:3;stroke-linecap:round;stroke-linejoin:round;stroke-miterlimit:4;stroke-opacity:1;stroke-dasharray:none"
       id="path6954"
       sodipodi:cx="744.58417"
       sodipodi:cy="180.29703"
       sodipodi:rx="93.267326"
       sodipodi:ry="88.603966"
       d="m 837.85149,180.29703 a 93.267326,88.603966 0 1 1 -186.53465,0 93.267326,88.603966 0 1 1 186.53465,0 z"
       transform="matrix(0.94930406,0,0,0.99926737,32.980066,0.23604957)" />
    <path
       sodipodi:type="arc"
       style="fill:#ff6600;fill-opacity:1;fill-rule:nonzero;stroke:#0c0c0c;stroke-width:3;stroke-linecap:round;stroke-linejoin:round;stroke-miterlimit:4;stroke-opacity:1;stroke-dasharray:none"
       id="path6956"
       sodipodi:cx="246.3812"
       sodipodi:cy="146.099"
       sodipodi:rx="36.529705"
       sodipodi:ry="40.415844"
       d="m 282.9109,146.099 a 36.529705,40.415844 0 1 1 -73.05941,0 36.529705,40.415844 0 1 1 73.05941,0 z"
       transform="translate(-12.435644,99.485151)" />
    <rect
       style="fill:#ff0000;fill-opacity:1;fill-rule:nonzero;stroke:#0c0c0c;stroke-width:3.42800379;stroke-linecap:round;stroke-linejoin:round;stroke-miterlimit:4;stroke-opacity:1;stroke-dasharray:none"
       id="rect6962"
       width="29.106651"
       height="473.68091"
       x="816.3031"
       y="-352.66721"
       game_data="sprite=game_over" />
    <rect
       style="fill:#ff0000;fill-opacity:1;fill-rule:nonzero;stroke:#0c0c0c;stroke-width:3;stroke-linecap:round;stroke-linejoin:round;stroke-miterlimit:4;stroke-opacity:1;stroke-dasharray:none"
       id="rect6964"
       width="186.53465"
       height="29.534655"
       x="413.48517"
       y="618.65344"
       game_data="sprite=game_over" />
  </g>
  <g
     inkscape:groupmode="layer"
     id="layer2"
     inkscape:label="physics:dynamic"
     style="display:none">
    <path
       sodipodi:type="arc"
       style="fill:#000080;fill-opacity:1;fill-rule:nonzero;stroke:#0c0c0c;stroke-width:5;stroke-linecap:round;stroke-linejoin:round;stroke-miterlimit:4;stroke-opacity:1;stroke-dasharray:none"
       id="path2974"
       sodipodi:cx="634"
       sodipodi:cy="152.5"
       sodipodi:rx="31"
       sodipodi:ry="29.5"
       d="m 665,152.5 a 31,29.5 0 1 1 -62,0 31,29.5 0 1 1 62,0 z"
       transform="matrix(0.72876783,0.28593254,-0.27549502,0.75637823,-333.79265,220.91711)"
       game_data="sprite=gasman" />
    <path
       sodipodi:type="arc"
       style="fill:#000000;fill-opacity:1;fill-rule:nonzero;stroke:#0c0c0c;stroke-width:3;stroke-linecap:round;stroke-linejoin:round;stroke-miterlimit:4;stroke-opacity:1;stroke-dasharray:none"
       id="path6829"
       sodipodi:cx="373.5"
       sodipodi:cy="125"
       sodipodi:rx="31.5"
       sodipodi:ry="32"
       d="m 405,125 a 31.5,32 0 1 1 -63,0 31.5,32 0 1 1 63,0 z"
       transform="matrix(1.0912981,0,0,1.0742466,-20.00085,107.91224)"
       game_data="sprite=bad_guy"
       physics_shape="restitution=1" />
    <path
       sodipodi:type="arc"
       style="fill:#241c1c;fill-opacity:1;fill-rule:nonzero;stroke:#0c0c0c;stroke-width:3;stroke-linecap:round;stroke-linejoin:round;stroke-miterlimit:4;stroke-opacity:1;stroke-dasharray:none"
       id="path6958"
       sodipodi:cx="551.83167"
       sodipodi:cy="152.31682"
       sodipodi:rx="40.415844"
       sodipodi:ry="41.970299"
       d="m 592.24751,152.31682 a 40.415844,41.970299 0 1 1 -80.83169,0 40.415844,41.970299 0 1 1 80.83169,0 z"
       transform="matrix(0.8594387,0,0,0.82760765,49.887954,-82.855616)"
       physics_shape="restitution=1"
       game_data="sprite=bad_guy" />
  </g>
  <g
     style="display:inline"
     id="g6966"
     inkscape:groupmode="layer"
     inkscape:label="graphics">
    <path
       style="fill:url(#Polkadots-medwhite);fill-opacity:1.0;fill-rule:nonzero;stroke:#0c0c0c;stroke-width:2.30956507000000011;stroke-linecap:round;stroke-linejoin:round;stroke-miterlimit:4;stroke-opacity:1;stroke-dasharray:none"
       d="m 739.8125,91.875 c -48.89877,0 -88.53125,39.63248 -88.53125,88.53125 0,48.89877 39.63248,88.53125 88.53125,88.53125 9.33175,0 18.33503,-1.44883 26.78125,-4.125 l 0,222.6875 C 748.64655,477.03659 727.77259,471.03125 705.5,471.03125 c -67.08701,0 -111.69318,55.09777 -121.46875,121.46875 -6.21782,42.21573 49.71837,-63.51145 116.80538,-63.51145 67.08701,0 3.33014,97.9549 90.37964,41.74907 25.04069,-16.16818 25.00561,-35.35156 7.18998,-56.48762 l 0,-267.5 c 18.356,-16.2226 -89.59846,-46.02549 -32.24072,-92.76949 C 805.86445,121.62766 788.71127,91.875 739.8125,91.875 z m -505.875,113.28125 c -20.1748,0 -36.53125,18.11645 -36.53125,40.4375 0,22.32105 16.35645,40.40625 36.53125,40.40625 20.1748,0 36.53125,-18.0852 36.53125,-40.40625 0,-22.32105 -16.35645,-40.4375 -36.53125,-40.4375 z M 16,290 l 0,1.5625 -14.84375,0 0,307.28125 24.9375,0 0,-0.34375 432.78125,0 0,-30.375 -432.78125,0 0,-249.125 290.90625,0 0,-29 -301,0 z m 461,60.90625 0,33.8125 124.78125,0 0,-33.8125 -124.78125,0 z"
       id="rect6968"
       sodipodi:nodetypes="cssccssssccsccsssccccccccccccccccccc" />
  </g>
</svg>
