<?xml version="1.0" encoding="UTF-8" standalone="no"?>
<!-- Created with Inkscape (http://www.inkscape.org/) -->

<svg
   xmlns:dc="http://purl.org/dc/elements/1.1/"
   xmlns:cc="http://creativecommons.org/ns#"
   xmlns:rdf="http://www.w3.org/1999/02/22-rdf-syntax-ns#"
   xmlns:svg="http://www.w3.org/2000/svg"
   xmlns="http://www.w3.org/2000/svg"
   xmlns:sodipodi="http://sodipodi.sourceforge.net/DTD/sodipodi-0.dtd"
   xmlns:inkscape="http://www.inkscape.org/namespaces/inkscape"
   width="800"
   height="600"
   id="svg2"
   version="1.1"
   inkscape:version="0.47pre1 r21720"
   sodipodi:docname="level5_1.svg"
   inkscape:output_extension="org.inkscape.output.svg.inkscape">
  <defs
     id="defs2824">
    <pattern
       inkscape:stockid="Checkerboard white"
       id="Checkerboardwhite"
       patternTransform="translate(0,0) scale(10,10)"
       height="2"
       width="2"
       patternUnits="userSpaceOnUse"
       inkscape:collect="always">
      <rect
         id="rect4490"
         height="1"
         width="1"
         y="0"
         x="0"
         style="fill:white;stroke:none" />
      <rect
         id="rect4492"
         height="1"
         width="1"
         y="1"
         x="1"
         style="fill:white;stroke:none" />
    </pattern>
    <inkscape:perspective
       sodipodi:type="inkscape:persp3d"
       inkscape:vp_x="0 : 300 : 1"
       inkscape:vp_y="0 : 1000 : 0"
       inkscape:vp_z="800 : 300 : 1"
       inkscape:persp3d-origin="400 : 200 : 1"
       id="perspective2826" />
  </defs>
  <sodipodi:namedview
     id="base"
     pagecolor="#ffffff"
     bordercolor="#666666"
     borderopacity="1.0"
     inkscape:pageopacity="0.0"
     inkscape:pageshadow="2"
     inkscape:zoom="1"
     inkscape:cx="420.87731"
     inkscape:cy="178.98169"
     inkscape:document-units="px"
     inkscape:current-layer="g10323"
     showgrid="false"
     inkscape:window-width="1273"
     inkscape:window-height="753"
     inkscape:window-x="9"
     inkscape:window-y="0"
     inkscape:window-maximized="0" />
  <metadata
     id="metadata7">
    <rdf:RDF>
      <cc:Work
         rdf:about="">
        <dc:format>image/svg+xml</dc:format>
        <dc:type
           rdf:resource="http://purl.org/dc/dcmitype/StillImage" />
        <dc:title />
      </cc:Work>
    </rdf:RDF>
  </metadata>
  <g
     inkscape:label="physics:static"
     inkscape:groupmode="layer"
     id="layer1"
     style="display:none">
    <rect
       style="fill:#ffac00;fill-opacity:1;fill-rule:nonzero;stroke:#0c0c0c;stroke-width:3;stroke-linecap:round;stroke-linejoin:round;stroke-miterlimit:4;stroke-opacity:1;stroke-dasharray:none"
       id="rect2844"
       width="286.69821"
       height="33.698231"
       x="1.5"
       y="564.80176" />
    <rect
       style="fill:#ffac00;fill-opacity:1;fill-rule:nonzero;stroke:#0c0c0c;stroke-width:3;stroke-linecap:round;stroke-linejoin:round;stroke-miterlimit:4;stroke-opacity:1;stroke-dasharray:none"
       id="rect2874"
       width="320.1423"
       height="11.142294"
       x="350.4859"
       y="613.34546"
       transform="matrix(0.97376535,-0.2275545,0.2275545,0.97376535,0,0)" />
    <rect
       style="fill:#ffac00;fill-opacity:1;fill-rule:nonzero;stroke:#0c0c0c;stroke-width:3;stroke-linecap:round;stroke-linejoin:round;stroke-miterlimit:4;stroke-opacity:1;stroke-dasharray:none"
       id="rect2876"
       width="13.549744"
       height="554.5498"
       x="787.72516"
       y="43.950195" />
    <rect
       style="fill:#ffac00;fill-opacity:1;fill-rule:nonzero;stroke:#0c0c0c;stroke-width:3;stroke-linecap:round;stroke-linejoin:round;stroke-miterlimit:4;stroke-opacity:1;stroke-dasharray:none"
       id="rect2878"
       width="24.273666"
       height="558.27368"
       x="1.5"
       y="40.226318" />
    <path
       sodipodi:type="arc"
       style="fill:#00ff00;fill-opacity:1;fill-rule:nonzero;stroke:#0c0c0c;stroke-width:5;stroke-linecap:round;stroke-linejoin:round;stroke-miterlimit:4;stroke-opacity:1;stroke-dasharray:none"
       id="path3004"
       sodipodi:cx="250.5"
       sodipodi:cy="372"
       sodipodi:rx="27.5"
       sodipodi:ry="30"
       d="m 278,372 a 27.5,30 0 1 1 -55,0 27.5,30 0 1 1 55,0 z"
       transform="matrix(0.11853075,0,0,0.10865319,142.35135,506.53771)"
       game_data="sprite=food" />
    <path
       sodipodi:type="arc"
       style="fill:#00ff00;fill-opacity:1;fill-rule:nonzero;stroke:#0c0c0c;stroke-width:5;stroke-linecap:round;stroke-linejoin:round;stroke-miterlimit:4;stroke-opacity:1;stroke-dasharray:none"
       id="path3006"
       sodipodi:cx="302"
       sodipodi:cy="402"
       sodipodi:rx="13"
       sodipodi:ry="15"
       d="m 315,402 a 13,15 0 1 1 -26,0 13,15 0 1 1 26,0 z"
       game_data="sprite=food"
       transform="matrix(0.2311751,0,0,0.20035175,143.22843,465.41529)" />
    <path
       sodipodi:type="arc"
       style="fill:#00ff00;fill-opacity:1;fill-rule:nonzero;stroke:#0c0c0c;stroke-width:5;stroke-linecap:round;stroke-linejoin:round;stroke-miterlimit:4;stroke-opacity:1;stroke-dasharray:none"
       id="path3008"
       sodipodi:cx="388"
       sodipodi:cy="440"
       sodipodi:rx="11"
       sodipodi:ry="13"
       d="m 399,440 a 11,13 0 1 1 -22,0 11,13 0 1 1 22,0 z"
       game_data="sprite=food"
       transform="matrix(0.26642076,0,0,0.22543296,155.67205,449.7662)" />
    <path
       sodipodi:type="arc"
       style="fill:#ff00ff;fill-opacity:1;fill-rule:nonzero;stroke:#0c0c0c;stroke-width:5;stroke-linecap:round;stroke-linejoin:round;stroke-miterlimit:4;stroke-opacity:1;stroke-dasharray:none"
       id="path3012"
       sodipodi:cx="620.5"
       sodipodi:cy="340"
       sodipodi:rx="26.5"
       sodipodi:ry="28"
       d="m 647,340 a 26.5,28 0 1 1 -53,0 26.5,28 0 1 1 53,0 z"
       game_data="sprite=gaswoman"
       transform="matrix(0.89865538,0,0,0.85051312,-415.11566,-2.67446)" />
    <rect
       style="fill:#ff0000;fill-opacity:1;fill-rule:nonzero;stroke:#0c0c0c;stroke-width:5.1865468;stroke-linecap:round;stroke-linejoin:round;stroke-miterlimit:4;stroke-opacity:1;stroke-dasharray:none"
       id="rect3133"
       width="499.81351"
       height="24.813452"
       x="290.09329"
       y="606.09326"
       game_data="sprite=game_over"
       physics_shape="isSensor=True" />
    <path
       sodipodi:type="arc"
       style="fill:#00ff00;fill-opacity:1;fill-rule:nonzero;stroke:#0c0c0c;stroke-width:1;stroke-linecap:round;stroke-linejoin:round;stroke-miterlimit:4;stroke-opacity:1;stroke-dasharray:none"
       id="path2833"
       sodipodi:cx="492.5"
       sodipodi:cy="483"
       sodipodi:rx="4.5"
       sodipodi:ry="4"
       d="m 497,483 a 4.5,4 0 1 1 -9,0 4.5,4 0 1 1 9,0 z"
       transform="translate(28,2)"
       game_data="sprite=food" />
    <path
       sodipodi:type="arc"
       style="fill:#00ff00;fill-opacity:1;fill-rule:nonzero;stroke:#0c0c0c;stroke-width:1;stroke-linecap:round;stroke-linejoin:round;stroke-miterlimit:4;stroke-opacity:1;stroke-dasharray:none"
       id="path2835"
       sodipodi:cx="596"
       sodipodi:cy="453"
       sodipodi:rx="5"
       sodipodi:ry="5"
       d="m 601,453 a 5,5 0 1 1 -10,0 5,5 0 1 1 10,0 z"
       transform="translate(0,12)"
       game_data="sprite=food" />
    <path
       sodipodi:type="arc"
       style="fill:#00ff00;fill-opacity:1;fill-rule:nonzero;stroke:#0c0c0c;stroke-width:1;stroke-linecap:round;stroke-linejoin:round;stroke-miterlimit:4;stroke-opacity:1;stroke-dasharray:none"
       id="path2837"
       sodipodi:cx="688.5"
       sodipodi:cy="433.5"
       sodipodi:rx="5.5"
       sodipodi:ry="4.5"
       d="m 694,433.5 a 5.5,4.5 0 1 1 -11,0 5.5,4.5 0 1 1 11,0 z"
       transform="translate(8,3)"
       game_data="sprite=food" />
    <rect
       style="fill:#ff7f2a;fill-opacity:1;fill-rule:nonzero;stroke:#0c0c0c;stroke-width:3;stroke-linecap:round;stroke-linejoin:round;stroke-miterlimit:4;stroke-opacity:1;stroke-dasharray:none"
       id="rect2843"
       width="339.79916"
       height="12.799157"
       x="23.100428"
       y="323.10043" />
  </g>
  <g
     inkscape:groupmode="layer"
     id="layer2"
     inkscape:label="physics:dynamic"
     style="display:none">
    <path
       sodipodi:type="arc"
       style="fill:#000080;fill-opacity:1;fill-rule:nonzero;stroke:#0c0c0c;stroke-width:5;stroke-linecap:round;stroke-linejoin:round;stroke-miterlimit:4;stroke-opacity:1;stroke-dasharray:none"
       id="path2974"
       sodipodi:cx="634"
       sodipodi:cy="152.5"
       sodipodi:rx="31"
       sodipodi:ry="29.5"
       d="m 665,152.5 a 31,29.5 0 1 1 -62,0 31,29.5 0 1 1 62,0 z"
       transform="matrix(0.72876783,0.28593254,-0.27549502,0.75637823,-333.79265,241.91711)"
       game_data="sprite=gasman" />
  </g>
  <g
     style="display:inline"
     id="g10323"
     inkscape:groupmode="layer"
     inkscape:label="graphics">
    <path
       style="fill:url(#Checkerboardwhite);fill-opacity:1.0;fill-rule:nonzero;stroke:#0c0c0c;stroke-width:3;stroke-linecap:round;stroke-linejoin:round;stroke-miterlimit:4;stroke-opacity:1;stroke-dasharray:none"
       d="M 1.5 40.21875 L 1.5 564.8125 L 1.5 598.5 L 288.1875 598.5 L 288.1875 564.8125 L 25.78125 564.8125 L 25.78125 335.90625 L 362.90625 335.90625 L 362.90625 323.09375 L 25.78125 323.09375 L 25.78125 40.21875 L 1.5 40.21875 z "
       id="rect10325" />
    <path
       style="fill:url(#Checkerboardwhite);fill-opacity:1.0;fill-rule:nonzero;stroke:#0c0c0c;stroke-width:3;stroke-linecap:round;stroke-linejoin:round;stroke-miterlimit:4;stroke-opacity:1;stroke-dasharray:none"
       d="M 787.71875 43.9375 L 787.71875 445.78125 L 480.875 517.5 L 483.40625 528.34375 L 787.71875 457.21875 L 787.71875 598.5 L 801.28125 598.5 L 801.28125 43.9375 L 787.71875 43.9375 z "
       id="rect10327" />
  </g>
</svg>
