<?xml version="1.0" encoding="UTF-8" standalone="no"?>
<!-- Created with Inkscape (http://www.inkscape.org/) -->

<svg
   xmlns:dc="http://purl.org/dc/elements/1.1/"
   xmlns:cc="http://creativecommons.org/ns#"
   xmlns:rdf="http://www.w3.org/1999/02/22-rdf-syntax-ns#"
   xmlns:svg="http://www.w3.org/2000/svg"
   xmlns="http://www.w3.org/2000/svg"
   xmlns:sodipodi="http://sodipodi.sourceforge.net/DTD/sodipodi-0.dtd"
   xmlns:inkscape="http://www.inkscape.org/namespaces/inkscape"
   width="800"
   height="600"
   id="svg2"
   version="1.1"
   inkscape:version="0.47pre1 r21720"
   sodipodi:docname="level4.svg"
   inkscape:output_extension="org.inkscape.output.svg.inkscape"
   inkscape:export-filename="/Users/riq/progs/pedoman/data/levels/level4.png"
   inkscape:export-xdpi="90"
   inkscape:export-ydpi="90">
  <defs
     id="defs2824">
    <pattern
       inkscape:stockid="Checkerboard white"
       id="Checkerboardwhite"
       patternTransform="translate(0,0) scale(10,10)"
       height="2"
       width="2"
       patternUnits="userSpaceOnUse"
       inkscape:collect="always">
      <rect
         id="rect4490"
         height="1"
         width="1"
         y="0"
         x="0"
         style="fill:white;stroke:none" />
      <rect
         id="rect4492"
         height="1"
         width="1"
         y="1"
         x="1"
         style="fill:white;stroke:none" />
    </pattern>
    <inkscape:perspective
       sodipodi:type="inkscape:persp3d"
       inkscape:vp_x="0 : 300 : 1"
       inkscape:vp_y="0 : 1000 : 0"
       inkscape:vp_z="800 : 300 : 1"
       inkscape:persp3d-origin="400 : 200 : 1"
       id="perspective2826" />
  </defs>
  <sodipodi:namedview
     id="base"
     pagecolor="#ffffff"
     bordercolor="#666666"
     borderopacity="1.0"
     inkscape:pageopacity="0.0"
     inkscape:pageshadow="2"
     inkscape:zoom="1"
     inkscape:cx="380.87731"
     inkscape:cy="138.03998"
     inkscape:document-units="px"
     inkscape:current-layer="g6305"
     showgrid="false"
     inkscape:window-width="1273"
     inkscape:window-height="753"
     inkscape:window-x="9"
     inkscape:window-y="0"
     inkscape:window-maximized="0" />
  <metadata
     id="metadata7">
    <rdf:RDF>
      <cc:Work
         rdf:about="">
        <dc:format>image/svg+xml</dc:format>
        <dc:type
           rdf:resource="http://purl.org/dc/dcmitype/StillImage" />
        <dc:title></dc:title>
      </cc:Work>
    </rdf:RDF>
  </metadata>
  <g
     inkscape:label="physics:static"
     inkscape:groupmode="layer"
     id="layer1"
     style="display:none">
    <rect
       style="fill:#ffac00;fill-opacity:1;fill-rule:nonzero;stroke:#0c0c0c;stroke-width:3;stroke-linecap:round;stroke-linejoin:round;stroke-miterlimit:4;stroke-opacity:1;stroke-dasharray:none"
       id="rect2844"
       width="497.99802"
       height="32.998051"
       x="1.5"
       y="565.50195" />
    <rect
       style="fill:#ffac00;fill-opacity:1;fill-rule:nonzero;stroke:#0c0c0c;stroke-width:3;stroke-linecap:round;stroke-linejoin:round;stroke-miterlimit:4;stroke-opacity:1;stroke-dasharray:none"
       id="rect2874"
       width="162.32582"
       height="36.325821"
       x="639.3371"
       y="562.17419" />
    <rect
       style="fill:#ffac00;fill-opacity:1;fill-rule:nonzero;stroke:#0c0c0c;stroke-width:2.84144235;stroke-linecap:round;stroke-linejoin:round;stroke-miterlimit:4;stroke-opacity:1;stroke-dasharray:none"
       id="rect2876"
       width="24.242744"
       height="531.24274"
       x="775.87866"
       y="67.336555" />
    <rect
       style="fill:#ffac00;fill-opacity:1;fill-rule:nonzero;stroke:#0c0c0c;stroke-width:2.83192563;stroke-linecap:round;stroke-linejoin:round;stroke-miterlimit:4;stroke-opacity:1;stroke-dasharray:none"
       id="rect2878"
       width="24.235743"
       height="529.23578"
       x="1.4159628"
       y="69.348274" />
    <path
       sodipodi:type="arc"
       style="fill:#00ff00;fill-opacity:1;fill-rule:nonzero;stroke:#0c0c0c;stroke-width:5;stroke-linecap:round;stroke-linejoin:round;stroke-miterlimit:4;stroke-opacity:1;stroke-dasharray:none"
       id="path3004"
       sodipodi:cx="250.5"
       sodipodi:cy="372"
       sodipodi:rx="27.5"
       sodipodi:ry="30"
       d="m 278,372 a 27.5,30 0 1 1 -55,0 27.5,30 0 1 1 55,0 z"
       transform="matrix(0.11853075,0,0,0.10865319,135.35135,505.53771)"
       game_data="sprite=food" />
    <path
       sodipodi:type="arc"
       style="fill:#00ff00;fill-opacity:1;fill-rule:nonzero;stroke:#0c0c0c;stroke-width:5;stroke-linecap:round;stroke-linejoin:round;stroke-miterlimit:4;stroke-opacity:1;stroke-dasharray:none"
       id="path3006"
       sodipodi:cx="302"
       sodipodi:cy="402"
       sodipodi:rx="13"
       sodipodi:ry="15"
       d="m 315,402 a 13,15 0 1 1 -26,0 13,15 0 1 1 26,0 z"
       game_data="sprite=food"
       transform="matrix(0.2311751,0,0,0.20035175,143.22843,465.41529)" />
    <path
       sodipodi:type="arc"
       style="fill:#00ff00;fill-opacity:1;fill-rule:nonzero;stroke:#0c0c0c;stroke-width:5;stroke-linecap:round;stroke-linejoin:round;stroke-miterlimit:4;stroke-opacity:1;stroke-dasharray:none"
       id="path3008"
       sodipodi:cx="388"
       sodipodi:cy="440"
       sodipodi:rx="11"
       sodipodi:ry="13"
       d="m 399,440 a 11,13 0 1 1 -22,0 11,13 0 1 1 22,0 z"
       game_data="sprite=food"
       transform="matrix(0.26642076,0,0,0.22543296,155.67205,449.7662)" />
    <path
       sodipodi:type="arc"
       style="fill:#ff00ff;fill-opacity:1;fill-rule:nonzero;stroke:#0c0c0c;stroke-width:5;stroke-linecap:round;stroke-linejoin:round;stroke-miterlimit:4;stroke-opacity:1;stroke-dasharray:none"
       id="path3012"
       sodipodi:cx="620.5"
       sodipodi:cy="340"
       sodipodi:rx="26.5"
       sodipodi:ry="28"
       d="m 647,340 a 26.5,28 0 1 1 -53,0 26.5,28 0 1 1 53,0 z"
       game_data="sprite=gaswoman"
       transform="matrix(0.89865538,0,0,0.85051312,169.88434,236.32554)" />
    <rect
       style="fill:#ff0000;fill-opacity:1;fill-rule:nonzero;stroke:#0c0c0c;stroke-width:2.30926609;stroke-linecap:round;stroke-linejoin:round;stroke-miterlimit:4;stroke-opacity:1;stroke-dasharray:none"
       id="rect3133"
       width="156.69075"
       height="15.690735"
       x="478.65463"
       y="618.6546"
       game_data="sprite=game_over"
       physics_shape="isSensor=True" />
    <rect
       style="fill:#ff7f2a;fill-opacity:1;fill-rule:nonzero;stroke:#0c0c0c;stroke-width:2.99103785;stroke-linecap:round;stroke-linejoin:round;stroke-miterlimit:4;stroke-opacity:1;stroke-dasharray:none"
       id="rect4518"
       width="799.93817"
       height="37.93811"
       x="1.4955189"
       y="67.030952" />
    <rect
       style="fill:#ff7f2a;fill-opacity:1;fill-rule:nonzero;stroke:#0c0c0c;stroke-width:2.92584515;stroke-linecap:round;stroke-linejoin:round;stroke-miterlimit:4;stroke-opacity:1;stroke-dasharray:none"
       id="rect4520"
       width="31.368792"
       height="407.36884"
       x="614.31561"
       y="191.16824" />
    <path
       sodipodi:type="arc"
       style="fill:#00ff00;fill-opacity:1;fill-rule:nonzero;stroke:#0c0c0c;stroke-width:1;stroke-linecap:round;stroke-linejoin:round;stroke-miterlimit:4;stroke-opacity:1;stroke-dasharray:none"
       id="path4522"
       sodipodi:cx="160"
       sodipodi:cy="493.5"
       sodipodi:rx="3"
       sodipodi:ry="3.5"
       d="m 163,493.5 a 3,3.5 0 1 1 -6,0 3,3.5 0 1 1 6,0 z"
       transform="matrix(1.0107106,0,0,0.8663234,137.2863,120.4694)"
       game_data="sprite=food" />
    <path
       sodipodi:type="arc"
       style="fill:#00ff00;fill-opacity:1;fill-rule:nonzero;stroke:#0c0c0c;stroke-width:1;stroke-linecap:round;stroke-linejoin:round;stroke-miterlimit:4;stroke-opacity:1;stroke-dasharray:none"
       id="path4524"
       sodipodi:cx="205.5"
       sodipodi:cy="499.5"
       sodipodi:rx="4.5"
       sodipodi:ry="3.5"
       d="m 210,499.5 a 4.5,3.5 0 1 1 -9,0 4.5,3.5 0 1 1 9,0 z"
       transform="matrix(0.69075129,0,0,0.88810881,213.05062,104.38965)"
       game_data="sprite=food" />
    <path
       sodipodi:type="arc"
       style="fill:#00ff00;fill-opacity:1;fill-rule:nonzero;stroke:#0c0c0c;stroke-width:1;stroke-linecap:round;stroke-linejoin:round;stroke-miterlimit:4;stroke-opacity:1;stroke-dasharray:none"
       id="path4526"
       sodipodi:cx="260.5"
       sodipodi:cy="501.5"
       sodipodi:rx="2.5"
       sodipodi:ry="3.5"
       d="m 263,501.5 a 2.5,3.5 0 1 1 -5,0 2.5,3.5 0 1 1 5,0 z"
       transform="matrix(1.1975732,0,0,0.85540942,97.032189,121.01218)"
       game_data="sprite=food" />
  </g>
  <g
     inkscape:groupmode="layer"
     id="layer2"
     inkscape:label="physics:dynamic"
     style="display:none">
    <path
       sodipodi:type="arc"
       style="fill:#000080;fill-opacity:1;fill-rule:nonzero;stroke:#0c0c0c;stroke-width:5;stroke-linecap:round;stroke-linejoin:round;stroke-miterlimit:4;stroke-opacity:1;stroke-dasharray:none"
       id="path2974"
       sodipodi:cx="634"
       sodipodi:cy="152.5"
       sodipodi:rx="31"
       sodipodi:ry="29.5"
       d="m 665,152.5 a 31,29.5 0 1 1 -62,0 31,29.5 0 1 1 62,0 z"
       transform="matrix(0.72876783,0.28593254,-0.27549502,0.75637823,-353.79265,240.91711)"
       game_data="sprite=gasman" />
  </g>
  <g
     style="display:inline"
     id="g6305"
     inkscape:groupmode="layer"
     inkscape:label="graphics">
    <path
       style="fill:url(#Checkerboardwhite);fill-opacity:1.0;fill-rule:nonzero;stroke:#0c0c0c;stroke-width:3;stroke-linecap:round;stroke-linejoin:round;stroke-miterlimit:4;stroke-opacity:1;stroke-dasharray:none"
       d="M 1.5 67.03125 L 1.5 69.34375 L 1.40625 69.34375 L 1.40625 598.59375 L 25.65625 598.59375 L 25.65625 598.5 L 499.5 598.5 L 499.5 565.5 L 25.65625 565.5 L 25.65625 104.96875 L 775.875 104.96875 L 775.875 562.1875 L 645.6875 562.1875 L 645.6875 191.15625 L 614.3125 191.15625 L 614.3125 598.53125 L 645.6875 598.53125 L 645.6875 598.5 L 775.875 598.5 L 775.875 598.59375 L 800.125 598.59375 L 800.125 598.5 L 801.65625 598.5 L 801.65625 562.1875 L 800.125 562.1875 L 800.125 104.96875 L 801.4375 104.96875 L 801.4375 67.03125 L 1.5 67.03125 z "
       id="rect6307" />
  </g>
</svg>
