<?xml version="1.0" encoding="UTF-8" standalone="no"?>
<!-- Created with Inkscape (http://www.inkscape.org/) -->

<svg
   xmlns:dc="http://purl.org/dc/elements/1.1/"
   xmlns:cc="http://creativecommons.org/ns#"
   xmlns:rdf="http://www.w3.org/1999/02/22-rdf-syntax-ns#"
   xmlns:svg="http://www.w3.org/2000/svg"
   xmlns="http://www.w3.org/2000/svg"
   xmlns:sodipodi="http://sodipodi.sourceforge.net/DTD/sodipodi-0.dtd"
   xmlns:inkscape="http://www.inkscape.org/namespaces/inkscape"
   width="744.09448819"
   height="1052.3622047"
   id="svg2"
   version="1.1"
   inkscape:version="0.47pre1 r21720"
   sodipodi:docname="gaswoman-character.svg"
   inkscape:output_extension="org.inkscape.output.svg.inkscape"
   inkscape:export-filename="/Users/riq/progs/pedoman/data/pedoman-character.png"
   inkscape:export-xdpi="90"
   inkscape:export-ydpi="90">
  <defs
     id="defs4">
    <linearGradient
       id="linearGradient5086">
      <stop
         style="stop-color:#e2ff37;stop-opacity:1;"
         offset="0"
         id="stop5088" />
      <stop
         style="stop-color:#e2ff37;stop-opacity:0;"
         offset="1"
         id="stop5090" />
    </linearGradient>
    <inkscape:perspective
       sodipodi:type="inkscape:persp3d"
       inkscape:vp_x="0 : 526.18109 : 1"
       inkscape:vp_y="0 : 1000 : 0"
       inkscape:vp_z="744.09448 : 526.18109 : 1"
       inkscape:persp3d-origin="372.04724 : 350.78739 : 1"
       id="perspective10" />
    <inkscape:perspective
       id="perspective5129"
       inkscape:persp3d-origin="0.5 : 0.33333333 : 1"
       inkscape:vp_z="1 : 0.5 : 1"
       inkscape:vp_y="0 : 1000 : 0"
       inkscape:vp_x="0 : 0.5 : 1"
       sodipodi:type="inkscape:persp3d" />
    <inkscape:perspective
       id="perspective5156"
       inkscape:persp3d-origin="0.5 : 0.33333333 : 1"
       inkscape:vp_z="1 : 0.5 : 1"
       inkscape:vp_y="0 : 1000 : 0"
       inkscape:vp_x="0 : 0.5 : 1"
       sodipodi:type="inkscape:persp3d" />
    <inkscape:perspective
       id="perspective5187"
       inkscape:persp3d-origin="0.5 : 0.33333333 : 1"
       inkscape:vp_z="1 : 0.5 : 1"
       inkscape:vp_y="0 : 1000 : 0"
       inkscape:vp_x="0 : 0.5 : 1"
       sodipodi:type="inkscape:persp3d" />
  </defs>
  <sodipodi:namedview
     id="base"
     pagecolor="#ffffff"
     bordercolor="#666666"
     borderopacity="1.0"
     inkscape:pageopacity="0.0"
     inkscape:pageshadow="2"
     inkscape:zoom="7.2602025"
     inkscape:cx="240.22573"
     inkscape:cy="521.68456"
     inkscape:document-units="px"
     inkscape:current-layer="layer1"
     showgrid="false"
     inkscape:window-width="1110"
     inkscape:window-height="639"
     inkscape:window-x="0"
     inkscape:window-y="0"
     inkscape:window-maximized="0" />
  <metadata
     id="metadata7">
    <rdf:RDF>
      <cc:Work
         rdf:about="">
        <dc:format>image/svg+xml</dc:format>
        <dc:type
           rdf:resource="http://purl.org/dc/dcmitype/StillImage" />
        <dc:title />
      </cc:Work>
    </rdf:RDF>
  </metadata>
  <g
     inkscape:label="Layer 1"
     inkscape:groupmode="layer"
     id="layer1">
    <path
       sodipodi:type="arc"
       style="fill:#f6993b;fill-opacity:1;stroke:#000000;stroke-width:3.86816508;stroke-miterlimit:4;stroke-opacity:1;stroke-dasharray:none"
       id="path2816"
       sodipodi:cx="312.85715"
       sodipodi:cy="468.07648"
       sodipodi:rx="95.714287"
       sodipodi:ry="87.14286"
       d="m 408.57143,468.07648 a 95.714287,87.14286 0 1 1 -191.42857,0 95.714287,87.14286 0 1 1 191.42857,0 z"
       transform="matrix(0.24667352,0,0,0.27093647,161.50117,406.67608)" />
    <path
       sodipodi:type="arc"
       style="fill:#fdfdfd;fill-opacity:1;stroke:#000000;stroke-width:0;stroke-miterlimit:4;stroke-opacity:1;stroke-dasharray:none"
       id="path5106"
       sodipodi:cx="229.54454"
       sodipodi:cy="526.98187"
       sodipodi:rx="5.7452426"
       sodipodi:ry="3.0052037"
       d="m 235.28978,526.98187 a 5.7452426,3.0052037 0 1 1 -11.49048,0 5.7452426,3.0052037 0 1 1 11.49048,0 z"
       transform="matrix(0.98518628,0,0,0.97025922,1.220903,15.021756)" />
    <path
       sodipodi:type="arc"
       style="fill:#fdfdfd;fill-opacity:1;stroke:#000000;stroke-width:0;stroke-miterlimit:4;stroke-opacity:1;stroke-dasharray:none"
       id="path5162"
       sodipodi:cx="244.74733"
       sodipodi:cy="526.98187"
       sodipodi:rx="6.0987959"
       sodipodi:ry="3.0052037"
       d="m 250.84613,526.98187 a 6.0987959,3.0052037 0 1 1 -12.1976,0 6.0987959,3.0052037 0 1 1 12.1976,0 z"
       transform="matrix(0.97025922,0,0,0.97025922,9.5894344,15.075567)" />
    <path
       sodipodi:type="arc"
       style="fill:#0000ff;fill-opacity:1;stroke:none"
       id="path5164"
       sodipodi:cx="227.42322"
       sodipodi:cy="526.00958"
       sodipodi:rx="2.3864853"
       sodipodi:ry="1.5026019"
       d="m 229.8097,526.00958 a 2.3864853,1.5026019 0 1 1 -4.77297,0 2.3864853,1.5026019 0 1 1 4.77297,0 z"
       transform="matrix(0.8380525,0,0,1.3310246,36.528931,-174.03452)"
       inkscape:transform-center-y="-1.9999769" />
    <path
       style="fill:#ffff00;fill-opacity:1;stroke:#000000;stroke-width:0.99999994;stroke-miterlimit:4;stroke-opacity:1;stroke-dasharray:none"
       d="M 237.375 504.25 C 230.64935 504.25 225.1875 506.41013 225.1875 509.0625 C 225.1875 509.50116 225.34564 509.94002 225.625 510.34375 C 223.59252 510.92086 220.9722 512.54983 218.40625 515 C 213.86728 519.33416 211.23698 524.56373 212.53125 526.6875 C 212.77911 527.09422 213.15068 527.3396 213.625 527.46875 C 212.86701 530.52926 212.40625 534.71993 212.40625 539.34375 C 212.40625 548.71505 214.31931 556.3125 216.6875 556.3125 C 219.05569 556.3125 220.96875 548.71505 220.96875 539.34375 C 220.96875 533.76286 220.30096 528.81129 219.25 525.71875 C 220.48995 524.92847 221.80084 523.92207 223.09375 522.6875 C 226.69599 519.2478 229.05973 515.22531 229.25 512.65625 C 231.40506 513.41771 234.25374 513.875 237.375 513.875 C 240.85503 513.875 243.96823 513.29804 246.1875 512.375 C 247.62979 514.77123 250.09653 517.67647 253.1875 520.46875 C 255.23738 522.32054 257.25767 523.86412 259.09375 525 C 258.27503 526.25632 257.78125 527.90761 257.78125 529.71875 C 257.78125 532.17574 258.70221 534.34584 260.09375 535.625 C 259.19126 537.70101 258.625 540.87433 258.625 544.40625 C 258.625 550.65826 260.43015 555.71875 262.65625 555.71875 C 264.88235 555.71875 266.6875 550.65826 266.6875 544.40625 C 266.6875 541.11251 266.20574 538.13115 265.40625 536.0625 C 267.08727 534.87854 268.25 532.47203 268.25 529.71875 C 268.25 527.01606 267.13074 524.67412 265.5 523.46875 C 264.30356 520.87775 261.48484 517.31143 257.75 513.9375 C 254.68955 511.17279 251.64912 509.09573 249.28125 508.03125 C 248.09013 505.87159 243.20821 504.25 237.375 504.25 z "
       id="path5263" />
    <path
       sodipodi:type="arc"
       style="fill:#0000ff;fill-opacity:1;stroke:none"
       id="path5275"
       sodipodi:cx="247.57576"
       sodipodi:cy="525.12567"
       sodipodi:rx="1.1490486"
       sodipodi:ry="0.9722718"
       d="m 248.72481,525.12567 a 1.1490486,0.9722718 0 1 1 -2.2981,0 1.1490486,0.9722718 0 1 1 2.2981,0 z"
       transform="matrix(1.7405705,0,0,2.057038,-184.35491,-553.89318)" />
    <path
       style="fill:#ff0000;stroke:#ff0000;stroke-width:1.94051838000000010;stroke-linecap:butt;stroke-linejoin:miter;stroke-miterlimit:4;stroke-opacity:1;stroke-dasharray:none;fill-opacity:1"
       d="m 226.56935,540.89311 c 1.47229,4.74737 1.99436,6.73478 11.14753,6.83578 11.45161,0.12636 11.43204,-7.30803 11.43204,-7.30803"
       id="path5291"
       sodipodi:nodetypes="csc" />
    <path
       style="fill:none;stroke:#000000;stroke-width:0.3;stroke-linecap:butt;stroke-linejoin:miter;stroke-opacity:1;stroke-miterlimit:4;stroke-dasharray:none"
       d="m 236.52722,528.74961 c -1.76777,7.07106 -3.71231,7.77817 -0.70711,8.13172 3.00521,0.35356 3.53554,0.35356 3.53554,0.35356"
       id="path6701" />
  </g>
</svg>
